# xmcd
#
# Track frame offsets:
#	182
#	32172
#	53537
#	85745
#	112635
#	130125
#	157472
#	173750
#	198737
#	220530
#
# Disc length: 3163 seconds
#
# Revision: 0
# Processed by: cddbd v1.5.1PL0 Copyright (c) Steve Scherf et al.
# Submitted via: dBpowerAMP V4.0
#
DISCID=7f0c590a
DTITLE=Blues Stompin - Live In Montauban
DYEAR=1900
DGENRE=Blues
TTITLE0=On the Basie Beat
TTITLE1=Yardbird Suite
TTITLE2=Softly As A Morning Sunrise
TTITLE3=Lullaby Of Birland
TTITLE4=Flat 6
TTITLE5=Autumn Leaves
TTITLE6=Honey Sucle Rose
TTITLE7=Nows The time
TTITLE8=Jive At Five
TTITLE9=Lester Leaps In
EXTD=
EXTT0=
EXTT1=
EXTT2=
EXTT3=
EXTT4=
EXTT5=
EXTT6=
EXTT7=
EXTT8=
EXTT9=
PLAYORDER=
